<svg width="16" height="17" viewBox="0 0 16 17" fill="none" xmlns="http://www.w3.org/2000/svg">
<g clip-path="url(#clip0_336_1337)">
<path d="M3.51031 7.00969C4.13204 5.12575 5.90248 3.77273 7.99951 3.77273C9.12678 3.77273 10.145 4.17273 10.945 4.82727L13.2722 2.5C11.8541 1.26364 10.0359 0.5 7.99951 0.5C4.84622 0.5 2.13134 2.29887 0.826172 4.93335L3.51031 7.00969Z" fill="#EA4335"/>
<path d="M10.694 12.5084C9.9675 12.9775 9.04428 13.2273 8.00022 13.2273C5.91121 13.2273 4.1463 11.8846 3.51821 10.0119L0.825195 12.0566C2.12875 14.6957 4.84356 16.5 8.00022 16.5C9.95544 16.5 11.8238 15.8049 13.223 14.4997L10.694 12.5084Z" fill="#34A853"/>
<path d="M13.2228 14.4997C14.6861 13.1347 15.6364 11.1025 15.6364 8.50002C15.6364 8.02729 15.5636 7.5182 15.4545 7.04547H8V10.1364H12.2909C12.0792 11.1758 11.5109 11.9808 10.6938 12.5084L13.2228 14.4997Z" fill="#4A90E2"/>
<path d="M3.51799 10.0119C3.35888 9.53755 3.27273 9.02917 3.27273 8.5C3.27273 7.97885 3.35629 7.47787 3.5108 7.00969L0.82666 4.93335C0.291058 6.00695 0 7.21692 0 8.5C0 9.7797 0.296521 10.9868 0.824975 12.0567L3.51799 10.0119Z" fill="#FBBC05"/>
</g>
<defs>
<clipPath id="clip0_336_1337">
<rect width="16" height="16" fill="white" transform="translate(0 0.5)"/>
</clipPath>
</defs>
</svg>
