<?xml version="1.0" encoding="utf-8"?>
<!-- Generator: Adobe Illustrator 16.0.3, SVG Export Plug-In . SVG Version: 6.00 Build 0)  -->
<!DOCTYPE svg PUBLIC "-//W3C//DTD SVG 1.1//EN" "http://www.w3.org/Graphics/SVG/1.1/DTD/svg11.dtd" [
	<!ENTITY ns_flows "http://ns.adobe.com/Flows/1.0/">
	<!ENTITY ns_extend "http://ns.adobe.com/Extensibility/1.0/">
	<!ENTITY ns_ai "http://ns.adobe.com/AdobeIllustrator/10.0/">
	<!ENTITY ns_graphs "http://ns.adobe.com/Graphs/1.0/">
	<!ENTITY ns_vars "http://ns.adobe.com/Variables/1.0/">
	<!ENTITY ns_imrep "http://ns.adobe.com/ImageReplacement/1.0/">
	<!ENTITY ns_sfw "http://ns.adobe.com/SaveForWeb/1.0/">
	<!ENTITY ns_custom "http://ns.adobe.com/GenericCustomNamespace/1.0/">
	<!ENTITY ns_adobe_xpath "http://ns.adobe.com/XPath/1.0/">
]>
<svg version="1.1" id="Layer_1" xmlns:x="&ns_extend;" xmlns:i="&ns_ai;" xmlns:graph="&ns_graphs;"
	 xmlns="http://www.w3.org/2000/svg" xmlns:xlink="http://www.w3.org/1999/xlink" xmlns:a="http://ns.adobe.com/AdobeSVGViewerExtensions/3.0/"
	 x="0px" y="0px" width="108px" height="62px" viewBox="0 0 108 62" style="enable-background:new 0 0 108 62;"
	 xml:space="preserve">
<style type="text/css">
<![CDATA[
	.st0{fill:#008C44;}
	.st1{fill:#72BF44;}
]]>
</style>
<metadata>
	<sfw  xmlns="&ns_sfw;">
		<slices></slices>
		<sliceSourceBounds  width="108" height="61.8" y="-61.9" x="0" bottomLeftOrigin="true"></sliceSourceBounds>
	</sfw>
</metadata>
<g>
	<path class="st1" d="M67.4,44l-3.2,2c-3,1.8-6.2,3.5-9.5,5.1c-26.6,13-51,14.5-54.4,3.5c-1.2-3.8,0.3-8.7,3.9-14
		c4.4-5.9,9.7-10.7,15.9-14.7C15.7,30.6,8.7,39.9,8.8,47c0,0.6,0.1,1.2,0.2,1.7c1.4,5.8,8.8,7.2,12.7,7.5c9,0.7,19.2-2,28.1-5.5
		c4.3-1.7,8.8-3.9,13.2-6.4c1-0.7,2.2-1.4,3.5-2.2L67.4,44 M42.5,10.9c26.6-13,51-14.5,54.4-3.5c0,0.1,0.1,0.3,0.1,0.4
		c0,0,0,0.1,0,0.1c0,0.1,0,0.2,0.1,0.3c0,0,0,0.1,0,0.1c0,0.1,0,0.2,0.1,0.3c0,0,0,0.1,0,0.1c0,0.1,0,0.3,0,0.4c0,0,0,0.1,0,0.1
		c0,0.1,0,0.2,0,0.3c0,0,0,0.1,0,0.1c0,0.1,0,0.2,0,0.3c0,0,0,0.1,0,0.1c0,0.1,0,0.3,0,0.4c0,0,0,0.1,0,0.1c0,0.2,0,0.3,0,0.5
		c0,0,0,0.1,0,0.1c0,0.1,0,0.2,0,0.3c0,0.1,0,0.1,0,0.2c0,0.1,0,0.2-0.1,0.3c0,0.1,0,0.1,0,0.2c0,0.2-0.1,0.3-0.1,0.5c0,0,0,0,0,0.1
		c0,0.1-0.1,0.3-0.1,0.4c0,0.1,0,0.1,0,0.2c0,0.1-0.1,0.2-0.1,0.3c0,0.1,0,0.1-0.1,0.2c0,0.1-0.1,0.2-0.1,0.4c0,0,0,0.1,0,0.1
		c-0.1,0.2-0.1,0.3-0.2,0.5c0,0.1,0,0.1-0.1,0.2c0,0.1-0.1,0.2-0.1,0.3c0,0.1-0.1,0.1-0.1,0.2c0,0.1-0.1,0.2-0.1,0.3
		c0,0.1-0.1,0.1-0.1,0.2c-0.1,0.1-0.1,0.3-0.2,0.4c0,0,0,0.1-0.1,0.1c-0.1,0.2-0.2,0.3-0.2,0.5c0,0.1-0.1,0.1-0.1,0.2
		c-0.1,0.1-0.1,0.2-0.2,0.3c0,0.1-0.1,0.1-0.1,0.2c-0.1,0.1-0.1,0.2-0.2,0.3c0,0.1-0.1,0.1-0.1,0.2c-0.1,0.2-0.2,0.3-0.3,0.5
		c0,0.1-0.1,0.1-0.1,0.2c-0.1,0.1-0.1,0.2-0.2,0.4c0,0.1-0.1,0.2-0.1,0.2c-0.1,0.1-0.1,0.2-0.2,0.3c0,0.1-0.1,0.2-0.1,0.2
		c-0.1,0.1-0.1,0.2-0.2,0.3c0,0.1-0.1,0.1-0.1,0.2c-0.1,0.2-0.2,0.3-0.3,0.5c-0.1,0.1-0.1,0.2-0.2,0.2c-0.1,0.1-0.1,0.2-0.2,0.3
		c-0.1,0.1-0.1,0.2-0.2,0.3c-0.1,0.1-0.1,0.2-0.2,0.3c-0.1,0.1-0.1,0.2-0.2,0.3c-0.1,0.1-0.2,0.2-0.2,0.3c-0.1,0.1-0.2,0.3-0.3,0.4
		c-0.1,0.1-0.2,0.2-0.2,0.3c-0.1,0.1-0.1,0.2-0.2,0.3c-0.1,0.1-0.1,0.2-0.2,0.3c-0.1,0.1-0.2,0.2-0.2,0.3c-0.1,0.1-0.2,0.2-0.2,0.3
		c-0.1,0.1-0.2,0.2-0.2,0.3c-0.1,0.1-0.2,0.3-0.3,0.4c-0.1,0.1-0.2,0.3-0.3,0.4c-0.1,0.1-0.2,0.2-0.2,0.3c-0.1,0.1-0.2,0.2-0.3,0.3
		c-0.1,0.1-0.1,0.2-0.2,0.3c-0.1,0.1-0.2,0.2-0.3,0.3c-0.1,0.1-0.1,0.2-0.2,0.2c-0.2,0.2-0.4,0.4-0.5,0.6c-0.1,0.1-0.1,0.2-0.2,0.2
		c-0.1,0.1-0.2,0.2-0.3,0.3c-1.4,1.4-2.9,2.8-4.3,4.1l-1.7-2l0.1-0.1c2.1-2.1,4-4.4,5.6-6.8l0-0.1c0-0.1,0.1-0.1,0.1-0.2l0,0
		c0.3-0.4,0.5-0.8,0.8-1.2l0-0.1c0-0.1,0.1-0.1,0.1-0.2c1.4-2.4,2.8-5.5,2.7-8.5c0-0.6-0.1-1.2-0.2-1.7C89,6,81.5,4.6,77.6,4.2
		c-9-0.7-19.2,2-28.1,5.5c-3.2,1.3-6.6,2.8-9.9,4.6h-3.8C38,13.2,40.2,12,42.5,10.9z"/>
	<path class="st1" d="M26.7,18.9c2,0,3.6,1.6,3.6,3.6c0,2-1.6,3.6-3.6,3.6c-2,0-3.6-1.6-3.6-3.6C23.1,20.5,24.7,18.9,26.7,18.9"/>
	<path class="st0" d="M67.3,31.7L67.3,31.7c1.4-1.1,2.9-1.6,4.5-1.3s3.9,1.6,5.7,3.5c-3.2,2.9-6.6,5.3-10.1,7.7
		c-0.5-0.8-1.1-1.9-1.5-2.8c-0.3-0.9-0.5-1.7-0.6-2.5c0-0.8,0.1-1.6,0.4-2.4C66.1,33,66.6,32.3,67.3,31.7 M82.8,32.6
		c-0.1-0.1-0.3-0.4-0.5-0.6c-0.2-0.2-0.3-0.4-0.4-0.5c-0.9-1.2-2-2.2-3.3-3c-1.3-0.8-2.7-1.2-4.1-1.4s-2.9-0.1-4.4,0.3
		s-2.9,1.1-4.3,2.2c-1.2,1.1-2.2,2.3-2.9,3.6c-0.7,1.4-1.1,2.8-1.2,4.2c-0.1,1.5,0,2.9,0.4,4.3c0.4,1.4,1.1,2.8,2.1,4
		c1.1,1.3,2.3,2.3,3.7,3s2.8,1.2,4.2,1.3c1.4,0.1,2.9,0,4.3-0.4c3.9-1.2,6.1-3.9,7.8-7.4l-1.3-1c-1.2,1.7-2.3,2.8-3.2,3.6
		c-1.1,0.9-2.2,1.4-3.2,1.6c-1.1,0.2-2,0.2-3,0c-0.9-0.2-1.8-0.6-2.6-1.2c-0.8-0.5-1.8-1.4-2.4-2.1C73.4,40.2,78.1,36.7,82.8,32.6z"
		/>
	<path class="st0" d="M29.4,27.7H24v21.7c1.8-0.9,3.6-1.8,5.4-2.9V27.7"/>
	<path class="st0" d="M53.3,14v4H41.4v28.5c-1.8,1.2-3.6,2.2-5.4,3.1V18H24v-4H53.3"/>
	<path class="st0" d="M91,31.8L91,31.8c1.4-1.1,2.9-1.6,4.5-1.3c1.6,0.2,3.9,1.6,5.7,3.5c-3.2,2.9-6.6,5.3-10.1,7.7
		c-0.5-0.8-1.1-1.9-1.5-2.8c-0.3-0.9-0.5-1.7-0.6-2.5c0-0.8,0.1-1.6,0.4-2.4C89.8,33,90.3,32.4,91,31.8 M106.5,32.6
		c-0.1-0.1-0.3-0.4-0.5-0.6c-0.2-0.2-0.3-0.4-0.4-0.5c-0.9-1.2-2-2.2-3.3-3c-1.3-0.8-2.7-1.2-4.1-1.4s-2.9-0.1-4.4,0.3
		c-1.5,0.4-2.9,1.1-4.3,2.2c-1.2,1.1-2.2,2.3-2.9,3.6c-0.7,1.4-1.1,2.8-1.2,4.2c-0.1,1.5,0,2.9,0.4,4.3c0.4,1.4,1.1,2.8,2.1,4
		c1.1,1.3,2.3,2.3,3.7,3s2.8,1.2,4.2,1.3c1.4,0.1,2.9,0,4.3-0.4c3.9-1.2,6.1-3.9,7.8-7.4l-1.3-1c-1.2,1.7-2.3,2.8-3.2,3.6
		c-1.1,0.9-2.2,1.4-3.2,1.6c-1.1,0.2-2,0.2-3,0c-0.9-0.2-1.8-0.6-2.6-1.2s-1.8-1.4-2.4-2.1C97.1,40.3,101.8,36.8,106.5,32.6z"/>
	<path class="st0" d="M60.6,26.1c-4.5,0-7.9,1.1-10.3,3.3s-3.6,5.2-3.6,9.1v11c1.8-0.9,3.6-1.9,5.4-3v-9.9c0-1.6,0.2-2.9,0.7-3.9
		s1.1-1.9,1.9-2.5c0.8-0.6,1.7-1.1,2.6-1.3c1-0.3,2-0.4,2.9-0.4c0.4,0,0.8,0,1.2,0c0.4,0,0.8,0.1,1.2,0.1v-2.5c-0.3,0-0.7,0-1.1,0
		C61.3,26.1,61,26.1,60.6,26.1"/>
</g>
</svg>
